 <!DOCTYPE svg PUBLIC "-//W3C//DTD SVG 1.1//EN" "http://www.w3.org/Graphics/SVG/1.1/DTD/svg11.dtd">
<svg xmlns="http://www.w3.org/2000/svg" width="865.76" height="682.89" viewBox="0 0 865.76 682.89">
<defs>
<style xmlns="http://www.w3.org/1999/xhtml">*, ::after, ::before { box-sizing: border-box; }
img, svg { vertical-align: middle; }
</style>
<style xmlns="http://www.w3.org/1999/xhtml">*, body, html { -webkit-font-smoothing: antialiased; }
img, svg { max-width: 100%; }
</style>
</defs>
<path d="M83.53,380.71V514.05c-13-19.14-36.16-58.23-44-104.09V380.71Z" fill="#2f2e41" data-secondary="true"/>
<path d="M83.53,380.71V514.05c-13-19.14-36.16-58.23-44-104.09V380.71Z" opacity="0.2"/>
<path d="M139.14,622.8s-2.48-40.54-46.42-96.14c0,0-159.77-195.76,60.9-307,0,0,62-45.53,216,3.3,0,0,104.09,33.46,178.07-46.92A168.19,168.19,0,0,1,600.47,137c41.5-19.23,107.2-33.16,161.29,30.22,0,0,89.82,121.21-31.07,235.94a52.91,52.91,0,0,0,3.46,79.58,141.26,141.26,0,0,0,29.94,17.79c45.84,20.77,72.39,69.85,63,119.3-.18,1-.38,2-.59,3Z" fill="#0071f2" data-primary="true"/>
<path d="M827.05,619.83c-.19,1-.39,2-.59,3H139.13s-2-32.3-33.63-78.77q-5.72-8.4-12.78-17.38s-3.7-4.53-9.19-12.61c-13-19.14-36.16-58.23-44-104.09-10.61-61.88,6.62-136.1,114.09-190.26,0,0,62-45.53,216,3.3,0,0,104.08,33.46,178.07-46.92A168.15,168.15,0,0,1,600.46,137c41.51-19.23,107.2-33.16,161.29,30.22,0,0,89.83,121.21-31.07,235.94a52.91,52.91,0,0,0,3.46,79.58,141.1,141.1,0,0,0,29.94,17.79C809.93,521.3,836.47,570.38,827.05,619.83Z" fill="#fff" opacity="0.7"/>
<rect x="676.62" y="173.36" width="44.02" height="130.89" fill="#0071f2" data-primary="true"/>
<rect x="676.62" y="173.36" width="44.02" height="130.89" opacity="0.2"/>
<rect x="720.64" y="173.36" width="82.24" height="130.89" fill="#0071f2" data-primary="true"/>
<rect x="741.49" y="173.36" width="16.22" height="38.23" opacity="0.2"/>
<rect x="580.47" y="304.26" width="222.41" height="10.43" fill="#0071f2" data-primary="true"/>
<rect x="580.47" y="304.26" width="222.41" height="10.43" fill="#fff" opacity="0.3"/>
<rect x="588.58" y="230.12" width="37.07" height="74.14" fill="#2f2e41" data-secondary="true"/>
<rect x="588.58" y="230.12" width="37.07" height="74.14" opacity="0.2"/>
<rect x="625.65" y="230.12" width="66.03" height="74.14" fill="#2f2e41" data-secondary="true"/>
<rect x="641.87" y="230.12" width="12.74" height="22.01" opacity="0.2"/>
<path d="M105.5,544h-66V410c7.85,45.86,31,85,44,104.09,5.49,8.08,9.19,12.61,9.19,12.61Q99.8,535.63,105.5,544Z" fill="#fff"/>
<path d="M228.33,380.71V544H105.5q-5.72-8.4-12.78-17.38s-3.7-4.53-9.19-12.61V380.71Z" fill="#2f2e41" data-secondary="true"/>
<rect x="139.14" y="380.71" width="28.96" height="53.28" opacity="0.2"/>
<path d="M611.32,622.8H391.66c-1-15.19,4.3-61.93,6.21-78.23.43-3.58.68-5.69.68-5.69l.55-33.79h13l150.77,26.78,11.14,7.36,32.5,21.47Z" fill="#2f2e41" data-secondary="true"/>
<path d="M540.06,622.8h19.25s11.64-34,50.58-18.72l-3.33-43.38-43.64-28.83L532.07,578Z" opacity="0.2"/>
<path d="M391.66,622.8h69.42s40.36-21,56.13-39.46l-1-25.32s-65.76,4.46-118.3-13.45C397.87,544.57,390.5,603.11,391.66,622.8Z" opacity="0.2"/>
<path d="M574.05,539.23c-14.07,7.84-26.13,20-26.1,38.74,0,0-2.2,25.31-7.9,44.84H517.27c.12-20.21.14-58-1.1-64.79,0,0-76.06,3.21-118.3-13.45.42-3.58.68-5.69.68-5.69l.54-33.79h13.06l150.77,26.78Z" opacity="0.2"/>
<polygon points="586.27 396.59 593.64 410.41 649.4 397.5 637.48 375.99 631.52 375.99 588.58 394.61 586.27 396.59" fill="#f9b499"/>
<path d="M634.92,378.39c-33.6,23.17-66,17.38-66,17.38l9.27,19.69L561.94,539.4a119.7,119.7,0,0,1-21.14,6.22c-37.09,7.53-79.09,1.1-93.85-1.64a48.34,48.34,0,0,0-10.74-.73c-29.13,1.17-26-15.43-26-15.43l-1.87-12.11a.76.76,0,0,0-1.46-.14l-10.58,29.62c-2.31-2.31-2.31-13.9-2.31-13.9-.56-15.43-1.62-34-2.61-49.23-1.08-16.79-2-29.53-2-29.53l11-75.88c-9.27-5.79-22.59-6.37-22.59-6.37-26.05-1.53-38.93,5.56-44.65,10.53a3.52,3.52,0,0,1-5.78-2.07,72.73,72.73,0,0,1-.54-15.41C325.63,347.11,350,259.08,350,259.08c1.16-19.69,62.22-36.08,62.22-36.08l31.29,9.68L537.09,239c13.38,3.11,28.57,11.24,28.57,11.24,20,8.55,29.13,32,29.13,32,34,57.91,42.44,82.24,42.44,82.24C643,373.76,634.92,378.39,634.92,378.39Z" fill="#0071f2" data-primary="true"/>
<path d="M570.6,347.94l-19.08-55.27,45.17,60.48-18.53-.32S573.46,348.77,570.6,347.94Z" opacity="0.2"/>
<path d="M547.53,116.23a79.64,79.64,0,0,1-3,23l-2.3-16.44A41.17,41.17,0,0,0,547.53,116.23Z" fill="#2f2e41" data-secondary="true"/>
<path d="M547.53,116.23a79.64,79.64,0,0,1-3,23l-2.3-16.44A41.17,41.17,0,0,0,547.53,116.23Z" opacity="0.2"/>
<path d="M544.56,145.56c0,36-16.61,65.95-38.64,72.71a31.84,31.84,0,0,1-9.43,1.43c-21.66,0-40-22.11-46-52.48a1,1,0,0,1,0-.11,112.07,112.07,0,0,1-2.06-21.55c0-40.95,21.52-74.14,48.07-74.14S544.56,104.61,544.56,145.56Z" fill="#f9b499"/>
<path d="M509.81,242.86C508.68,260,484,278.19,483.2,278.76h0c1.61-10.75-2.27-17.26-6.88-21.15h0a26.63,26.63,0,0,0-11.64-5.48c-26.64-5.79-31.28-34.75-31.28-34.75a30.94,30.94,0,0,0,8-7.83s0,0,0,0c.23-.32.45-.64.66-1a1.77,1.77,0,0,0,.12-.17c.19-.29.39-.59.56-.89a3.87,3.87,0,0,0,.27-.43,7.64,7.64,0,0,0,.47-.83c7.84-13.72,7.46-31.92,7.13-37.46a1.48,1.48,0,0,1,0-.21c0-.27,0-.52,0-.71,0-.41-.05-.63-.05-.63,6,30.37,24.34,52.48,46,52.48a31.84,31.84,0,0,0,9.43-1.43l-.09,2.55a4.85,4.85,0,0,0,1,3.25,13.43,13.43,0,0,1,2.21,4.29,25.32,25.32,0,0,1,1.07,5.94h0A42.27,42.27,0,0,1,509.81,242.86Z" fill="#f9b499"/>
<path d="M509.07,228.36h0c-36.65,9.82-67.69-18.81-67.69-18.81s0,0,0,0c.22-.32.45-.63.66-1a1.77,1.77,0,0,0,.12-.17c.19-.29.39-.59.56-.89a3.87,3.87,0,0,0,.27-.43c.16-.27.32-.55.47-.83,7.66-13.52,7.4-32,7.13-37.46a1.48,1.48,0,0,1,0-.21c0-.28,0-.52,0-.71,0-.41-.05-.63-.05-.63,6,30.37,24.34,52.48,46,52.48a31.84,31.84,0,0,0,9.43-1.43l-.09,2.55a4.85,4.85,0,0,0,1,3.25A13.43,13.43,0,0,1,509.07,228.36Z" fill="#f7a48b"/>
<path d="M509.81,242.86c-1.15,17.38-26.64,35.91-26.64,35.91,1.61-10.75-2.27-17.26-6.88-21.15.46.16,10.38,4,11.52,11.88,0,0,14.53-12.47,22.33-35.19A42.27,42.27,0,0,1,509.81,242.86Z" fill="#f7a48b"/>
<path d="M526,282.25A33.32,33.32,0,0,0,503.39,274a48.78,48.78,0,0,0-20.13,4.72.11.11,0,0,1,.06-.06l0,0,.25-.19.91-.7.29-.23c.53-.42,1.19-.94,1.94-1.56l.77-.64,1-.81.49-.43c.4-.34.81-.71,1.24-1.09s.59-.53.9-.81l.22-.2c.56-.52,1.14-1.06,1.73-1.63l.6-.58c.5-.49,1-1,1.51-1.52.21-.19.41-.4.6-.61s.41-.41.61-.63c.4-.41.81-.85,1.2-1.29.2-.21.39-.44.59-.66,1.6-1.79,3.16-3.69,4.6-5.66.17-.25.36-.49.53-.75s.35-.5.52-.75.34-.5.5-.76a38.86,38.86,0,0,0,4.07-7.85c.09-.27.18-.53.28-.8a22.56,22.56,0,0,0,1.15-5.63,42.27,42.27,0,0,0,.33-8.55h0a25.32,25.32,0,0,0-1.07-5.94,13.43,13.43,0,0,0-2.21-4.29,4.85,4.85,0,0,1-1-3.25l.09-2.55,23.67,12.14C551.68,243.44,526,282.25,526,282.25Z" fill="#0071f2" data-primary="true"/>
<path d="M526,282.25A33.32,33.32,0,0,0,503.39,274a48.78,48.78,0,0,0-20.13,4.72.11.11,0,0,1,.06-.06l0,0,.25-.19.91-.7.29-.23c.53-.42,1.19-.94,1.94-1.56l.77-.64,1-.81.49-.43c.4-.34.81-.71,1.24-1.09s.59-.53.9-.81l.22-.2c.56-.52,1.14-1.06,1.73-1.63l.6-.58c.5-.49,1-1,1.51-1.52.21-.19.41-.4.6-.61s.41-.41.61-.63c.4-.41.81-.85,1.2-1.29.2-.21.39-.44.59-.66,1.6-1.79,3.16-3.69,4.6-5.66.17-.25.36-.49.53-.75s.35-.5.52-.75.34-.5.5-.76a38.86,38.86,0,0,0,4.07-7.85c.09-.27.18-.53.28-.8a22.56,22.56,0,0,0,1.15-5.63,42.27,42.27,0,0,0,.33-8.55h0a25.32,25.32,0,0,0-1.07-5.94,13.43,13.43,0,0,0-2.21-4.29,4.85,4.85,0,0,1-1-3.25l.09-2.55,23.67,12.14C551.68,243.44,526,282.25,526,282.25Z" fill="#fff" opacity="0.3"/>
<path d="M462.49,251.6s-14.07,2.85-23.34,8.64c0,0-15.55,11.05-22.25-4.32,0,0-13.82-27.49-1-37.65l17.46-9.5a37.42,37.42,0,0,0,0,8.61S438.33,245.27,462.49,251.6Z" fill="#0071f2" data-primary="true"/>
<path d="M462.49,251.6s-14.07,2.85-23.34,8.64c0,0-15.55,11.05-22.25-4.32,0,0-13.82-27.49-1-37.65l17.46-9.5a37.42,37.42,0,0,0,0,8.61S438.33,245.27,462.49,251.6Z" fill="#fff" opacity="0.3"/>
<path d="M433.36,208.77s5.17-3.25,10.11-2.54a31.63,31.63,0,0,1-10.11,11.15S432.2,211.75,433.36,208.77Z" fill="#0071f2" data-primary="true"/>
<path d="M433.36,208.77s5.17-3.25,10.11-2.54a31.63,31.63,0,0,1-10.11,11.15S432.2,211.75,433.36,208.77Z" fill="#fff" opacity="0.35"/>
<path d="M503.39,274a48.78,48.78,0,0,0-20.13,4.72h0s0,0,.07-.06l0,0,.25-.19.91-.7.29-.23c.53-.42,1.19-.94,1.94-1.56l.77-.64,1-.81c.16-.13.32-.28.49-.43.4-.34.81-.71,1.24-1.09s.59-.53.9-.81l.22-.2c.56-.52,1.14-1.06,1.73-1.63l.6-.58c.5-.49,1-1,1.51-1.52.21-.19.41-.4.6-.61s.41-.41.61-.63c.4-.41.81-.85,1.2-1.29.21-.22.41-.44.59-.66,1.6-1.79,3.16-3.69,4.6-5.66.19-.25.36-.51.53-.75s.35-.5.52-.75.34-.5.5-.76a38.86,38.86,0,0,0,4.07-7.85c.09-.27.19-.53.28-.8a22.56,22.56,0,0,0,1.15-5.63S510.85,261,503.39,274Z" fill="#fff" opacity="0.3"/>
<path d="M578.16,415.46,561.94,539.4a119.7,119.7,0,0,1-21.14,6.22c-26.14-27.23-50.25-42.52-62.6-55.26a51.32,51.32,0,0,0-33-15.61,138.28,138.28,0,0,0-33.89,2.1l-20,5.21c-1.08-16.79-2-29.53-2-29.53l11-75.88s14.48,5.22,17.95-12.16a241.79,241.79,0,0,0,8.11-68.34s8.11,37.06,4.64,62.55c0,0-4.64,16.22,26.64,11.58l111.2,25.49Z" opacity="0.2"/>
<path d="M641.51,350a55.91,55.91,0,0,1-4.61,13.63c-2.6,5.06-5.3,7.29-7,8.27a8.79,8.79,0,0,0-1.72,1.25,10.93,10.93,0,0,0-1.92,2.31l-3.29,5.29-17-8.11c-3.48-3.48-8.11-1.16-8.11-1.16l-7.44-4-22,36.71c3,9.53-6.06,7.75-6.06,7.75l-16.64-8,29-48.65,3.48-2.39,2.31,0a13.58,13.58,0,0,1-5.63-7.39,7,7,0,0,1,1.35-7c4.61-5.06,14.73-5.06,25.68-3.06h0a175.34,175.34,0,0,1,27.55,7.89h0c4.9,1.78,8.77,3.37,10.82,4.24A2.09,2.09,0,0,1,641.51,350Z" fill="#2f2e41" data-secondary="true"/>
<path d="M580.47,335.67s3.16,17,13.1,24.05c0,0,0,0,0,0-1-.42-10.89-4.71-13.1-6.87C580.47,352.87,566.57,342.76,580.47,335.67Z" fill="#fff" opacity="0.1"/>
<path d="M641.51,350c-3.36,15.33-8.79,20.3-11.66,21.9a8.79,8.79,0,0,0-1.72,1.25l-9.43-4c9.27-8.11,10.74-25.77,10.74-25.77h0c4.9,1.78,8.77,3.37,10.82,4.24A2.09,2.09,0,0,1,641.51,350Z" fill="#fff" opacity="0.1"/>
<path d="M580.47,335.67s2.32,20.71,19.7,27.66l18.53,5.79s8.73-6.37,10.74-25.77C629.44,343.35,597.85,330,580.47,335.67Z" opacity="0.2"/>
<polygon points="530.66 428.2 522.56 502.33 703.26 462.95 704.45 380.71 530.66 428.2" fill="#ccc"/>
<polygon points="679.51 392.87 677.78 422.41 699.78 418.93 700.36 388.24 679.51 392.87" fill="#fff"/>
<polygon points="703.26 462.95 770.45 540.56 766.97 462.95 704.45 380.71 703.26 462.95" fill="#999"/>
<polygon points="770.45 540.56 593.64 577.96 522.56 502.33 703.26 462.95 770.45 540.56" fill="#b3b3b3"/>
<path d="M730.62,549s-.39,8.67-3.45,8.23L726,550Z" fill="#f7a48b"/>
<path d="M747.08,556.64s6-2.18,7.15-5.65l-3.58-6.24-6.81,1.44Z" fill="#f7a48b"/>
<path d="M769.74,524.87s7.17,8.85,6.26,14c0,0-4.92-4.29-5.82-4.2Z" fill="#f7a48b"/>
<path d="M552.66,104.79c-.22.83-8.76,31-32,22a36.22,36.22,0,0,1-12.36-7.24l-.19-.16-1.77-1.67s1.16,9.27,8.11,13.9c0,0-18.54,5.79-31.28-2.32,0,0-6.95-2.31-11.58-11.58,0,0-5.79,4.63-4.64,15.06,0,0,3.18,13.31-10.56,25.76h0l-5.89,8.63c.75,10-1.07,21.11-1.79,24.94-.08.46-.19.93-.28,1.4a54,54,0,0,0-12.06-15.68,43.29,43.29,0,0,1-11.12-14.1,65.66,65.66,0,0,1-3.84-10.23,69.94,69.94,0,0,1-2.59-22.83,76.84,76.84,0,0,1,5.71-25.23h0c.44-1.09.9-2.17,1.4-3.23,7.52-16.21,21.5-33.71,45.86-27.19,0,0,4.42-23.69,36.23-11.48A64.08,64.08,0,0,1,540.92,92c.05.11.11.21.17.32s3.47,5.79,11.58,3.47c0,0-1.15,8.11-4.63,9.27A3.63,3.63,0,0,0,552.66,104.79Z" fill="#2f2e41" data-secondary="true"/>
<path d="M448.7,192.16c-.08.46-.19.93-.28,1.4a54,54,0,0,0-12.06-15.68,43.29,43.29,0,0,1-11.12-14.1,65.66,65.66,0,0,1-3.84-10.23,69.94,69.94,0,0,1-2.59-22.83c1,1.52,9.68,14.84,19.35,14.84l12.33,21.66S451.82,176.18,448.7,192.16Z" opacity="0.2"/>
<path d="M471.8,75.06c-3.27,3.64-3.39,10.32-3.39,10.32-23.7-10.24-43.35,19.3-43.87,20.1.44-1.09.9-2.17,1.4-3.23C433.46,86,447.44,68.54,471.8,75.06Z" opacity="0.2"/>
<path d="M467,132.82s3.18,13.31-10.56,25.76c.29-.43,5.87-8.72,3.61-21.13a32.34,32.34,0,0,1,10.43-29s0,7,1.16,9.27C471.59,117.76,465.8,122.39,467,132.82Z" opacity="0.2"/>
<path d="M514.45,131.66c-13.9,0-29.78-26.18-29.78-26.18,9.59-6.49,21.67,12.28,21.67,12.28S507.5,127,514.45,131.66Z" opacity="0.2"/>
<path d="M436.47,261.8s36.8-6.2,42.33,20.45l.9,32.43s.48,26.83,13.56,34.84c0,0-10.09-15.26-9.51-38.37l1.51-21.06a7.56,7.56,0,0,1,3.39-5.76c5.11-3.37,16.31-8,32.75.23l4.63-2.31s-14.9-16.31-42.78-3.52c0,0,2.38-14.46-7-21.11,0,0-6.69-5.4-13.8-6C462.49,251.6,445.37,255.25,436.47,261.8Z" opacity="0.2"/>
<circle cx="499.16" cy="297.02" r="4.4" fill="#2f2e41" data-secondary="true"/>
<circle cx="500.55" cy="314.68" r="4.63" fill="#2f2e41" data-secondary="true"/>
<circle cx="501.36" cy="330.03" r="4.4" fill="#2f2e41" data-secondary="true"/>
<rect x="139.14" y="462.95" width="268.74" height="159.85" fill="#0071f2" data-primary="true"/>
<rect x="139.14" y="462.95" width="268.74" height="159.85" fill="#0071f2" data-primary="true"/>
<rect x="139.14" y="462.95" width="268.74" height="159.85" fill="#fff" opacity="0.3"/>
<rect x="98.6" y="462.95" width="40.54" height="159.85" fill="#0071f2" data-primary="true"/>
<rect x="98.6" y="462.95" width="40.54" height="159.85" fill="#fff" opacity="0.4"/>
<rect x="366.18" y="526.66" width="132.05" height="96.14" fill="#b3b3b3"/>
<rect x="219.07" y="526.66" width="147.11" height="96.14" fill="#ccc"/>
<rect x="219.07" y="526.66" width="147.11" height="31.28" opacity="0.2"/>
<rect x="365.6" y="526.66" width="132.63" height="31.28" opacity="0.2"/>
<rect x="188.95" y="462.95" width="92.67" height="48.65" fill="#fff" opacity="0.3"/>
<ellipse cx="446.15" cy="158.59" rx="9.85" ry="16.02" transform="translate(-27.33 162.57) rotate(-20.05)" fill="#f9b499"/>
<path d="M596.69,383c0,9.27-10.42,7-10.42,7-1.16,11.59-11.59,10.43-11.59,10.43-4.65,4.3-10.08,5.17-15.36,4.31h0c-11.8-1.91-22.85-12.41-22.85-12.41l-43,15.49c-3.54,1.26-7,2.64-10.48,4.11h0c-5.74,2.44-11.38,5.17-16.89,8.13C395.1,458.2,365,457.16,365,457.16c-6.65-1.24-12-11.87-16-25h0c-1.47-4.75-2.78-9.82-3.94-14.9v0a395.32,395.32,0,0,1-6.7-40.09c30.72-16.69,62.16-.8,62.16-.8l.28,8.56,38.36-6.5c70.66-12.74,96.15-24.33,96.15-24.33,7-4.63,23.17-5.79,23.17-5.79,11.58-4.63,19.69,4.56,19.69,4.56l-3.48,2.39c2.32,5.79,23.17,16.22,23.17,16.22,6.95-2.32,8.11,1.16,8.11,1.16C609.43,384.18,596.69,383,596.69,383Z" fill="#f9b499"/>
<path d="M400.79,384.89c-52.72-13-55.67,31.16-55.74,32.33a395.32,395.32,0,0,1-6.7-40.09c31.88-16.69,62.16-.8,62.16-.8Z" fill="#f7a48b"/>
<path d="M466.07,420C395.1,458.2,365,457.16,365,457.16c-6.65-1.24-12-11.87-16-25,.36.29,16.63,13.31,70.46,3a178.86,178.86,0,0,0,26.64-9.27A117.29,117.29,0,0,1,466.07,420Z" fill="#f7a48b"/>
<path d="M559.31,404.7c-11.8-1.91-22.85-12.41-22.85-12.41l-43,15.49c-3.54,1.26-7,2.64-10.48,4.11l61.76-30.6A30.09,30.09,0,0,0,559.31,404.7Z" fill="#f7a48b"/>
<path d="M557.31,394.61c5.77,2.06,11.3,4.71,17.37,5.79-6.22.54-12.36-2.32-17.37-5.79Z" fill="#f7a48b"/>
<path d="M566,386.07c6.61,1.65,13.43,3.81,20.28,3.9-6.88,1.53-14.17-.74-20.28-3.9Z" fill="#f7a48b"/>
<path d="M580.47,378.39A59.87,59.87,0,0,1,596.69,383a59.62,59.62,0,0,1-16.22-4.63Z" fill="#f7a48b"/>
<path d="M641.51,350a55.91,55.91,0,0,1-4.61,13.63c-3.74-6.59-34.06-27.47-35-28.13a175.34,175.34,0,0,1,27.55,7.89h0c4.9,1.78,8.77,3.37,10.82,4.24A2.09,2.09,0,0,1,641.51,350Z" opacity="0.2"/>
<path d="M768,486.53s9.37-.41,9.37,5.38c0,0,2.61,7.84-8.54,13.19Z" fill="#f9b499"/>
<path d="M719.48,534.77s-5.79,0-2.32,12.74c0,0,3.48,11.58,8.11,10.43,0,0,5.79,1.15,1.16-13.9C726.43,544,725.27,533.61,719.48,534.77Z" fill="#f9b499"/>
<path d="M733.53,528.81c-1.93,2.29-5.5,8.8-.15,22.18,0,0,4.88,9.43,11.13,7,0,0,6.24-1.24,2.77-8.19,0,0-5.61-10.61-5.7-15.15,0,0-1-6.55-5.5-7A3,3,0,0,0,733.53,528.81Z" fill="#f9b499"/>
<path d="M745,530.59c-.91,1.8-1.78,5.12.09,9.94a19.45,19.45,0,0,0,8.11,9.62c2.72,1.63,6,2.71,8.19.54,0,0,6.72-3.18-1.39-11.29,0,0-6.3-8.66-11.11-10.4A3.16,3.16,0,0,0,745,530.59Z" fill="#f9b499"/>
<path d="M760.83,529.45s-3.13,3,0,8.2c0,0,8.46,9.86,13.09,6.39,0,0,4.21-2,1.17-7.3a13.39,13.39,0,0,0-2.77-3.32C769.66,531.05,763.74,526.44,760.83,529.45Z" fill="#f9b499"/>
<rect x="214.43" y="504.65" width="155.22" height="38.23" fill="#ccc"/>
<rect x="279.3" y="504.65" width="27.8" height="78.77" opacity="0.2"/>
<rect x="369.65" y="504.65" width="132.05" height="38.23" fill="#999"/>
<rect x="117.94" y="163.86" width="3.23" height="152.95" fill="#2f2e41" data-secondary="true"/>
<rect x="123.53" y="163.86" width="3.23" height="152.95" fill="#2f2e41" data-secondary="true"/>
<rect x="136.78" y="163.86" width="3.23" height="139.16" fill="#2f2e41" data-secondary="true"/>
<rect x="167.38" y="163.86" width="3.23" height="139.16" fill="#2f2e41" data-secondary="true"/>
<rect x="188.27" y="163.86" width="3.23" height="139.16" fill="#2f2e41" data-secondary="true"/>
<rect x="210.35" y="163.86" width="3.23" height="139.16" fill="#2f2e41" data-secondary="true"/>
<rect x="216.23" y="163.86" width="3.23" height="152.95" fill="#2f2e41" data-secondary="true"/>
<rect x="222.11" y="163.86" width="3.23" height="152.95" fill="#2f2e41" data-secondary="true"/>
<rect x="243.6" y="163.86" width="3.23" height="139.16" fill="#2f2e41" data-secondary="true"/>
<rect x="265.97" y="163.86" width="3.23" height="139.16" fill="#2f2e41" data-secondary="true"/>
<rect x="287.45" y="163.86" width="3.23" height="139.16" fill="#2f2e41" data-secondary="true"/>
<rect x="293.63" y="163.86" width="3.24" height="139.16" fill="#2f2e41" data-secondary="true"/>
<rect x="308.93" y="163.86" width="3.23" height="139.16" fill="#2f2e41" data-secondary="true"/>
<rect x="315.41" y="163.86" width="3.23" height="152.95" fill="#2f2e41" data-secondary="true"/>
<rect x="321.58" y="163.86" width="3.23" height="152.95" fill="#2f2e41" data-secondary="true"/>
<rect x="142.36" y="163.86" width="5.88" height="139.16" fill="#2f2e41" data-secondary="true"/>
<rect x="151.78" y="163.86" width="5.88" height="139.16" fill="#2f2e41" data-secondary="true"/>
<rect x="179.44" y="163.86" width="5.88" height="139.16" fill="#2f2e41" data-secondary="true"/>
<rect x="194.75" y="163.86" width="5.88" height="139.16" fill="#2f2e41" data-secondary="true"/>
<rect x="229.18" y="163.86" width="8.53" height="139.16" fill="#2f2e41" data-secondary="true"/>
<rect x="250.37" y="163.86" width="8.53" height="139.16" fill="#2f2e41" data-secondary="true"/>
<rect x="272.44" y="163.86" width="8.53" height="139.16" fill="#2f2e41" data-secondary="true"/>
<path d="M145.32,333.09a5.76,5.76,0,0,1-3.27-.82,4.67,4.67,0,0,1-1.79-2.34,10.08,10.08,0,0,1-.56-3.53,9.42,9.42,0,0,1,.31-2.59,5.59,5.59,0,0,1,.81-1.73,4.47,4.47,0,0,1,1.12-1.05,12.19,12.19,0,0,1,1.2-.71,5,5,0,0,1-2.32-1.95,6.63,6.63,0,0,1-.89-3.64,8.81,8.81,0,0,1,.53-3.09,4.27,4.27,0,0,1,1.73-2.11,5.69,5.69,0,0,1,3.17-.76,5.52,5.52,0,0,1,3.12.77,4.56,4.56,0,0,1,1.69,2.11,8.71,8.71,0,0,1,.53,3.12,6.55,6.55,0,0,1-.87,3.59,5.14,5.14,0,0,1-2.31,1.94,11,11,0,0,1,1.19.71,4.4,4.4,0,0,1,1.06,1.05,5.94,5.94,0,0,1,.83,1.72,9.18,9.18,0,0,1,.32,2.6,10.32,10.32,0,0,1-.56,3.53,4.64,4.64,0,0,1-1.78,2.33A5.76,5.76,0,0,1,145.32,333.09Zm0-1.7a3.18,3.18,0,0,0,1.94-.55,3.1,3.1,0,0,0,1.15-1.65,10.16,10.16,0,0,0,0-5.36,3.81,3.81,0,0,0-1-1.78,3.35,3.35,0,0,0-2.05-.77,3.46,3.46,0,0,0-2.11.77,3.76,3.76,0,0,0-1.12,1.78,8.57,8.57,0,0,0-.34,2.57,8.24,8.24,0,0,0,.4,2.79,3,3,0,0,0,3.17,2.2Zm0-12.08a3,3,0,0,0,1.93-.68,3.43,3.43,0,0,0,1-1.65,8.67,8.67,0,0,0,.28-2.32,5.42,5.42,0,0,0-.76-3.17,2.83,2.83,0,0,0-2.45-1.06,2.89,2.89,0,0,0-2.48,1.06,5.29,5.29,0,0,0-.78,3.17,7.9,7.9,0,0,0,.29,2.32,3.24,3.24,0,0,0,1.06,1.65A3.16,3.16,0,0,0,145.32,319.31Z" fill="#2f2e41" data-secondary="true"/>
<path d="M163,333.09a6.49,6.49,0,0,1-3-.61,4,4,0,0,1-1.81-1.87,7.44,7.44,0,0,1-.64-3.09v-.43h2.11a5.51,5.51,0,0,0,.73,3.23,3.78,3.78,0,0,0,4.35.51,2.94,2.94,0,0,0,1.11-1.61,9.54,9.54,0,0,0,.38-3.05v-4.5a4,4,0,0,1-1.39,1,6.12,6.12,0,0,1-2.43.44,5.48,5.48,0,0,1-3.09-.75,4.06,4.06,0,0,1-1.6-2.33,14.13,14.13,0,0,1-.46-4,11.4,11.4,0,0,1,.57-3.84,5.14,5.14,0,0,1,1.82-2.51,5.57,5.57,0,0,1,3.29-.9,5.19,5.19,0,0,1,3.17.9,5,5,0,0,1,1.76,2.56,12.54,12.54,0,0,1,.56,4v9.5a12.59,12.59,0,0,1-.53,3.86,5.2,5.2,0,0,1-1.69,2.62A4.91,4.91,0,0,1,163,333.09Zm-.08-11.69a4.18,4.18,0,0,0,2.11-.46,4.48,4.48,0,0,0,1.24-.93v-4.08a12.47,12.47,0,0,0-.34-3.17,2.77,2.77,0,0,0-3-2.28,3.23,3.23,0,0,0-1.93.54,3.15,3.15,0,0,0-1.16,1.66,8.79,8.79,0,0,0-.38,2.83,18.79,18.79,0,0,0,.22,3.27,3.2,3.2,0,0,0,.95,1.94,3.36,3.36,0,0,0,2.25.68Z" fill="#2f2e41" data-secondary="true"/>
<path d="M182,332.83v-7h-7.18v-2.2L181.55,309h2.53v14.93h2.74v1.94h-2.74v7Zm-5-8.93h5V311.8Z" fill="#2f2e41" data-secondary="true"/>
<path d="M193.71,332.83l4.66-22.18h-7.22v-1.74h9.43V310l-4.78,22.86Z" fill="#2f2e41" data-secondary="true"/>
<path d="M241.05,333.09a5.5,5.5,0,0,1-3.36-.91,5,5,0,0,1-1.76-2.5,11.42,11.42,0,0,1-.53-3.62V315.68a10.92,10.92,0,0,1,.55-3.63,4.87,4.87,0,0,1,1.8-2.46,5.57,5.57,0,0,1,3.3-.88,5.7,5.7,0,0,1,3.36.88,4.89,4.89,0,0,1,1.78,2.46,10.92,10.92,0,0,1,.55,3.63v10.38a11.61,11.61,0,0,1-.53,3.65,4.83,4.83,0,0,1-1.77,2.48A5.63,5.63,0,0,1,241.05,333.09Zm0-1.7a3,3,0,0,0,2.11-.7,3.79,3.79,0,0,0,1.06-1.85,10.9,10.9,0,0,0,.31-2.61V315.55a10.41,10.41,0,0,0-.31-2.61,3.79,3.79,0,0,0-1.06-1.85,3.22,3.22,0,0,0-2.11-.68,3.1,3.1,0,0,0-2.11.68,3.64,3.64,0,0,0-1.06,1.85,9.57,9.57,0,0,0-.31,2.61v10.68a10,10,0,0,0,.31,2.61,3.64,3.64,0,0,0,1.06,1.85A3,3,0,0,0,241.05,331.39Z" fill="#2f2e41" data-secondary="true"/>
<path d="M259.23,333.09a5.48,5.48,0,0,1-3.36-.91,4.94,4.94,0,0,1-1.76-2.5,10.88,10.88,0,0,1-.53-3.62V315.68a11.18,11.18,0,0,1,.54-3.63,4.91,4.91,0,0,1,1.79-2.46,6.8,6.8,0,0,1,6.68,0,4.87,4.87,0,0,1,1.77,2.46,10.92,10.92,0,0,1,.55,3.63v10.38a11.61,11.61,0,0,1-.53,3.65,4.89,4.89,0,0,1-1.76,2.48A5.67,5.67,0,0,1,259.23,333.09Zm0-1.7a3.06,3.06,0,0,0,2.11-.7,3.79,3.79,0,0,0,1.06-1.85,10,10,0,0,0,.31-2.61V315.55a10,10,0,0,0-.31-2.61,3.71,3.71,0,0,0-1.06-1.85,3.67,3.67,0,0,0-4.22,0,3.71,3.71,0,0,0-1.06,1.85,10.41,10.41,0,0,0-.31,2.61v10.68a10.9,10.9,0,0,0,.31,2.61,3.64,3.64,0,0,0,1.06,1.85A2.94,2.94,0,0,0,259.23,331.39Z" fill="#2f2e41" data-secondary="true"/>
<path d="M277.39,333.09a5.47,5.47,0,0,1-3.35-.91,5,5,0,0,1-1.77-2.5,12,12,0,0,1-.53-3.62V315.68a11.18,11.18,0,0,1,.55-3.63,4.87,4.87,0,0,1,1.8-2.46,5.59,5.59,0,0,1,3.3-.88,5.68,5.68,0,0,1,3.36.88,4.91,4.91,0,0,1,1.79,2.46,11.46,11.46,0,0,1,.55,3.63v10.38a11.62,11.62,0,0,1-.54,3.65,4.83,4.83,0,0,1-1.77,2.48A5.63,5.63,0,0,1,277.39,333.09Zm0-1.7a3.07,3.07,0,0,0,2.12-.7,3.77,3.77,0,0,0,1.05-1.85,10.41,10.41,0,0,0,.31-2.61V315.55a10.41,10.41,0,0,0-.31-2.61,3.77,3.77,0,0,0-1.05-1.85,3.23,3.23,0,0,0-2.12-.68,3.11,3.11,0,0,0-2.11.68,3.63,3.63,0,0,0-1,1.85,9.57,9.57,0,0,0-.32,2.61v10.68a10,10,0,0,0,.32,2.61,3.63,3.63,0,0,0,1,1.85A3,3,0,0,0,277.39,331.39Z" fill="#2f2e41" data-secondary="true"/>
<path d="M291,332.83l4.64-22.13h-7.21V309h9.42v1l-4.76,22.81Z" fill="#2f2e41" data-secondary="true"/>
</svg>